<svg id="Capa_1" data-name="Capa 1" xmlns="http://www.w3.org/2000/svg" viewBox="0 0 278.93 277.15"><defs><style>.cls-1{fill:#fff;}</style></defs><title>LA GANZUA</title><path class="cls-1" d="M1348,192.44H1224.69c0,2.18.14,4.28,0,6.36a14.07,14.07,0,0,1-4.37,9,1.92,1.92,0,0,0-.58,1.94c0.66,3.77,1.27,7.55,1.81,11.33a4.24,4.24,0,0,1-4,4.69c-5.63.06-11.26,0-16.89,0a4.5,4.5,0,0,1-4.15-5.24c0.81-3.4,1.23-6.89,1.82-10.35,0.41-2.4-.36-3.34-2.85-3.34h-40.14c-1.43,0-2.87.08-4.29,0a1.59,1.59,0,0,0-1.84,1.34,42,42,0,0,1-19,23.25c-24.76,14.25-55.39-1-60.42-28.59-4.19-23,10.19-44.64,32.93-49.25,13.82-2.8,25.8,1.5,35.92,11.06a37.64,37.64,0,0,1,10.76,17.61,1.41,1.41,0,0,0,.93.89c2.62,0.07,5.25,0,8,0,0-.61.08-1.14,0.1-1.67,0.1-3.69,0-7.4.35-11.06,0.84-7.91,8.22-14.39,15.69-14.35,0-.52.06-1.05,0.07-1.58,0.15-5.58,0-11.19.49-16.73a34.15,34.15,0,0,1,67.75-2,59.16,59.16,0,0,1,.51,8.13c0.08,4,0,8,0,12.16a15.78,15.78,0,0,1,13.06,7c2.92,4.18,3.41,8.94,3.22,14h-10.66c0-1.24,0-2.51,0-3.78-0.12-4.58-2.41-6.81-7-6.81h-65.61c-4.78,0-7.41,2.62-7.43,7.44,0,6.09,0,12.17,0,18.39h-27.55a30.72,30.72,0,0,0-13-23.69,30,30,0,0,0-18.53-5.85c-12.26.09-24.82,8.83-28.28,19.91a15.87,15.87,0,0,1,12.37-3.92A15.53,15.53,0,0,1,1105,185a16.55,16.55,0,0,1-.93,21.46c-5.79,6.14-15.28,6.73-22.73,1.12,0.29,0.72.43,1.15,0.63,1.55,9.81,20.31,36,24.55,51.55,7.32a29.62,29.62,0,0,0,7.77-18.09c0.09-1.22.76-1.11,1.56-1.11l48.86,0h1.54c0.2-1.48.29-2.86,0.57-4.2A15.67,15.67,0,0,1,1216,182.38a8.08,8.08,0,0,0,3.82.88q58.34,0,116.68,0a3.84,3.84,0,0,1,2.93,1.16C1342.16,187,1344.93,189.58,1348,192.44Zm-115-36.28c0-2.65,0-5.18,0-7.7a91.07,91.07,0,0,0-.38-10.91A23.62,23.62,0,0,0,1208,117.37c-11.84.49-22.09,10.37-22.77,22.2-0.31,5.34-.15,10.7-0.19,16.05a1.93,1.93,0,0,0,.18.54h47.73Zm-29.58,63.33h11.39c0-.39,0-0.71-0.08-1-0.77-4.21-1.53-8.42-2.34-12.63a1.42,1.42,0,0,1,.84-1.84,8.44,8.44,0,0,0,4.14-9.53,8.43,8.43,0,0,0-16.29-.24c-1,3.66.51,8,3.67,9.77a1.8,1.8,0,0,1,1,2.24c-0.42,2.22-.83,4.44-1.22,6.66S1203.73,217.23,1203.36,219.49Zm-111-32.95a8.65,8.65,0,0,0-8.7,8.39,8.9,8.9,0,0,0,8.53,8.8c4.31,0.07,8.38-4.09,8.41-8.61A8.37,8.37,0,0,0,1092.37,186.55Z" transform="translate(-1069.04 -71.54)"/><path class="cls-1" d="M1299.82,177.11h-10.74c3-20.48,3.11-41,1.86-61.52-2.73-.5-5.4-1-8-1.48a214.64,214.64,0,0,1-72.55-29.26,2,2,0,0,0-2.54,0c-22.4,14-46.37,24.18-72.39,29.25-1.36.26-2.71,0.56-4.07,0.8s-2.63.39-4.34,0.64l-0.57,34.05-10.93-2.8a387.26,387.26,0,0,1,1.55-40.57c4.16-.67,8.2-1.31,12.24-2a184.44,184.44,0,0,0,41.27-12.19,225.86,225.86,0,0,0,37.2-20,2,2,0,0,1,2.56,0c16.59,10.74,34.05,19.7,52.89,25.85A211.38,211.38,0,0,0,1300,106a1.2,1.2,0,0,1,1.28,1.33c1.33,17.17,2,34.36.7,51.56-0.43,5.79-1.26,11.55-1.91,17.32A5.77,5.77,0,0,1,1299.82,177.11Z" transform="translate(-1069.04 -71.54)"/><path class="cls-1" d="M1290.6,213c-2.17,5-4,9.68-6.21,14.16-12.74,25.59-31.32,46-55.22,61.56-6.17,4-12.75,7.39-19.17,11a1.87,1.87,0,0,1-1.5,0A164.41,164.41,0,0,1,1161,265.49a144.67,144.67,0,0,1-22.56-30c-0.25-.44-0.48-0.89-0.73-1.36l8.08-7.4c0.2,0.29.39,0.53,0.54,0.8,10.79,19.82,25.82,35.86,44.13,48.86,5.66,4,11.76,7.42,17.7,11a2,2,0,0,0,1.71.1c21.17-11.44,39.25-26.47,53.37-46.06A119.94,119.94,0,0,0,1278.28,214a1.59,1.59,0,0,1,.92-1C1282.83,213,1286.46,213,1290.6,213Z" transform="translate(-1069.04 -71.54)"/><path class="cls-1" d="M1259.77,206.9q-1.65,23.65-20,38a47.53,47.53,0,0,1-33.4,10.52A49.83,49.83,0,0,1,1172,238.93,50.82,50.82,0,0,1,1159,213c2.33,0,4.48,0,6.63,0,1.38,0,3.09-.41,4,0.25s0.9,2.38,1.27,3.65c4.28,14.47,20.84,30.19,42,28a40.39,40.39,0,0,0,36-37.91c0.13-2.67.08-5.35,0.12-8,0-.5,0-1,0-1.58h98.86c-0.38.42-.61,0.72-0.88,1-2.82,2.59-5.61,5.21-8.49,7.74a3.64,3.64,0,0,1-2.07.79,48.86,48.86,0,0,1-5.81,0,3.83,3.83,0,0,1-2.17-.9c-1.3-1.17-2.43-2.52-3.66-3.78s-2.24-1.39-3.58.06c-0.84.91-1.69,1.83-2.45,2.82a4.52,4.52,0,0,1-6.81.07,11.77,11.77,0,0,0-1.76-1.76,4,4,0,0,0-5.63-.15c-1.09.85-2,1.89-3.2,2.64a5.42,5.42,0,0,1-2.73,1c-12.46.07-24.91,0.05-37.37,0.06h-1.57Z" transform="translate(-1069.04 -71.54)"/><path class="cls-1" d="M1222,348h-7.12v-30.6c1.93,0,3.83,0,5.72,0a1.6,1.6,0,0,1,.8.68c4.79,5.78,9.57,11.57,14.53,17.57V317.48H1243v30.59c-1.92,0-3.82,0-5.72,0a1.54,1.54,0,0,1-.83-0.64q-6.86-8.29-13.69-16.59l-0.81-1V348Z" transform="translate(-1069.04 -71.54)"/><path class="cls-1" d="M1175,322.14l-4.26,4.76c-0.53-.45-0.88-0.77-1.26-1.07a10.54,10.54,0,0,0-11.11-1.65c-4.21,1.66-6.29,6.27-5.15,11a8.86,8.86,0,0,0,8,7,10.1,10.1,0,0,0,5.76-.88,1.34,1.34,0,0,0,.85-1.36c0-2.22,0-4.43,0-6.65,0-.33,0-0.66,0-1.06h6.26c0.18,0,.35,0,0.63.05,0,0.38,0,.71,0,1,0,3.39,0,6.77,0,10.16a1.79,1.79,0,0,1-.92,1.73A20.59,20.59,0,0,1,1159,348.4a15.67,15.67,0,0,1-9.07-4.58c-4.44-4.51-5.37-10-3.63-15.8s5.8-9.2,11.58-10.51a18.66,18.66,0,0,1,12.7,1.28A13.62,13.62,0,0,1,1175,322.14Z" transform="translate(-1069.04 -71.54)"/><path class="cls-1" d="M1306.77,317.49c0,0.37,0,.67,0,1,0,5.54.06,11.08,0,16.62a19.19,19.19,0,0,1-.72,5,11.13,11.13,0,0,1-8.65,8.08,19,19,0,0,1-9,0c-5.4-1.3-9-5.37-9.24-10.94-0.23-5.38-.11-10.77-0.13-16.15,0-1.16,0-2.33,0-3.55h7.36c0,0.37,0,.73,0,1.08,0,5.48,0,11,0,16.43a11.61,11.61,0,0,0,.24,2.56c0.82,3.54,3.87,5.3,7.84,4.6a5.7,5.7,0,0,0,5-5.38,19.45,19.45,0,0,0,.16-2.39c0-5.26,0-10.52,0-15.79,0-.36,0-0.72,0-1.13h7.23Z" transform="translate(-1069.04 -71.54)"/><path class="cls-1" d="M1132.11,348.08c-2.45,0-4.76,0-7.06,0a1.12,1.12,0,0,1-.74-0.63c-0.74-1.69-1.46-3.39-2.13-5.11a1,1,0,0,0-1.08-.72q-6.19,0-12.37,0a1,1,0,0,0-1.14.79c-0.63,1.67-1.34,3.31-2,5a1,1,0,0,1-1.08.74c-2,0-3.94,0-5.91,0-0.2,0-.41,0-0.74-0.07,0.31-.75.57-1.43,0.86-2.1q6-13.88,12-27.77a1,1,0,0,1,1.1-.71c2,0,4.06,0,6.09,0a0.88,0.88,0,0,1,1,.61q6.47,14.69,13,29.37C1132,347.58,1132,347.76,1132.11,348.08Zm-12.58-12.19-4.65-11-4.72,11h9.36Z" transform="translate(-1069.04 -71.54)"/><path class="cls-1" d="M1177.21,348.08c0.43-1,.79-1.9,1.17-2.77q5.9-13.58,11.79-27.17a1,1,0,0,1,1.08-.73c2,0,4,0,6,.06a1.18,1.18,0,0,1,.88.53q6.61,14.73,13.17,29.48c0.06,0.14.11,0.28,0.23,0.6h-1.59c-1.69,0-3.39,0-5.08,0a1.05,1.05,0,0,1-1.17-.77c-0.69-1.68-1.46-3.32-2.16-5a1,1,0,0,0-1.08-.75q-6.23,0-12.47,0a1,1,0,0,0-1.12.8c-0.65,1.69-1.35,3.37-2.09,5a1.19,1.19,0,0,1-.83.63C1181.76,348.1,1179.58,348.08,1177.21,348.08Zm17.08-23.27-4.74,11.07h9.26Z" transform="translate(-1069.04 -71.54)"/><path class="cls-1" d="M1308.76,348.07c0.47-1.1.86-2.05,1.28-3q5.89-13.49,11.78-27a0.94,0.94,0,0,1,1-.7c2,0,4,0,6,0a0.9,0.9,0,0,1,1,.6q6.56,14.75,13.16,29.49c0.06,0.14.09,0.28,0.19,0.57h-3.54c-1,0-2-.06-3,0a1.24,1.24,0,0,1-1.43-1c-0.64-1.63-1.36-3.23-2-4.86a0.93,0.93,0,0,0-1-.69q-6.28,0-12.56,0a1,1,0,0,0-1.13.8c-0.66,1.69-1.38,3.36-2.11,5a1.08,1.08,0,0,1-.64.63C1313.42,348.09,1311.16,348.07,1308.76,348.07Zm17-23.23-4.65,11.05h9.35Z" transform="translate(-1069.04 -71.54)"/><path class="cls-1" d="M1274.8,348h-26.57c0-1.58-.05-3.14,0-4.68a2.57,2.57,0,0,1,.78-1.11L1264,324.52c0.23-.28.45-0.56,0.81-1h-16v-6h25.51c0,1.52,0,3.05,0,4.58a1.6,1.6,0,0,1-.48.75l-14.55,17.56c-0.37.45-.72,0.9-1.22,1.53h16.79V348Z" transform="translate(-1069.04 -71.54)"/><path class="cls-1" d="M1081,341.94h15.35V348h-22.48V317.51H1081v24.43Z" transform="translate(-1069.04 -71.54)"/></svg>